<?xml version="1.0" encoding="UTF-8" standalone="no"?>
<!-- Created with Inkscape (http://www.inkscape.org/) -->

<svg
   width="22"
   height="22"
   viewBox="0 0 5.8208332 5.8208336"
   version="1.1"
   id="svg5"
   inkscape:version="1.1.2 (0a00cf5339, 2022-02-04)"
   sodipodi:docname="icon.svg"
   xmlns:inkscape="http://www.inkscape.org/namespaces/inkscape"
   xmlns:sodipodi="http://sodipodi.sourceforge.net/DTD/sodipodi-0.dtd"
   xmlns="http://www.w3.org/2000/svg"
   xmlns:svg="http://www.w3.org/2000/svg">
  <sodipodi:namedview
     id="namedview7"
     pagecolor="#ffffff"
     bordercolor="#666666"
     borderopacity="1.0"
     inkscape:pageshadow="2"
     inkscape:pageopacity="0"
     inkscape:pagecheckerboard="true"
     inkscape:document-units="px"
     showgrid="false"
     units="px"
     width="64px"
     inkscape:zoom="18.016611"
     inkscape:cx="13.792827"
     inkscape:cy="14.625392"
     inkscape:window-width="1920"
     inkscape:window-height="1052"
     inkscape:window-x="0"
     inkscape:window-y="0"
     inkscape:window-maximized="1"
     inkscape:current-layer="layer1" />
  <defs
     id="defs2" />
  <g
     inkscape:label="Layer 1"
     inkscape:groupmode="layer"
     id="layer1"
     style="opacity:1">
    <path
       style="display:inline;opacity:1;fill:none;fill-opacity:0.497646;stroke:#ffffff;stroke-width:0.533445;stroke-linecap:round;stroke-linejoin:bevel;stroke-miterlimit:4;stroke-dasharray:none;stroke-opacity:1"
       d="m 2.4104584,4.4347797 c 0.029318,0.019226 0.059199,0.037585 0.089602,0.055046 C 2.663065,5.116243 3.2284168,5.5536377 3.8756947,5.5541104 4.6613306,5.5541101 5.298214,4.917227 5.298214,4.1315912 5.2982426,3.8379153 5.2073771,3.5514286 5.0380902,3.3114547 5.0694917,3.1784609 5.0854558,3.0422909 5.0856693,2.9056408 5.0856583,2.7434507 5.0634562,2.5820245 5.0196837,2.4258532 5.1544148,2.2037573 5.2257588,1.9490085 5.2259767,1.6892412 5.2259767,0.90360559 4.5890932,0.26672207 3.8034575,0.26672202 3.1426019,0.26691157 2.5689097,0.72219662 2.4186199,1.3657362 2.2255611,1.4791151 2.0556508,1.6279339 1.917821,1.8043693"
       id="path4183" />
    <path
       id="path1056"
       style="display:inline;opacity:1;fill:none;fill-opacity:0.497646;stroke:#ffffff;stroke-width:0.533445;stroke-linecap:round;stroke-linejoin:bevel;stroke-miterlimit:4;stroke-dasharray:none;stroke-opacity:1"
       d="M 3.3075207,1.1274919 A 1.7781488,1.7781488 0 0 0 1.9124379,1.8036747 C 1.8397047,1.7922024 1.765261,1.7859627 1.689301,1.7859627 c -0.78563564,0 -1.42251909,0.6368835 -1.42251909,1.4225191 0,0.7856359 0.63688345,1.422519 1.42251909,1.422519 0.2612783,0 0.5058782,-0.070689 0.7162953,-0.1936168 A 1.7781488,1.7781488 0 0 0 3.3075207,4.6837898 1.7781488,1.7781488 0 0 0 5.0856693,2.9056408 1.7781488,1.7781488 0 0 0 3.3075207,1.1274919 Z" />
    <path
       id="path3930"
       style="display:inline;opacity:1;fill:none;fill-opacity:0.497646;stroke:#ffffff;stroke-width:0.533445;stroke-linecap:round;stroke-linejoin:bevel;stroke-miterlimit:4;stroke-dasharray:none;stroke-opacity:1"
       d="m 2.940889,3.1817046 c 0,0.3928178 -0.071585,0.817226 -0.2457749,1.0327249 -0.2574253,0.2574254 -0.6130551,0.4166463 -1.0058729,0.4166463 -0.78563565,0 -1.42251918,-0.6368835 -1.42251918,-1.4225192 0,-0.7856356 0.63688353,-1.4225192 1.42251918,-1.4225192 0.3928178,0 0.7484476,0.1592209 1.0058729,0.4166463 0.1193217,0.1857019 0.2457749,0.5862031 0.2457749,0.9790209 z"
       sodipodi:nodetypes="scssscs" />
  </g>
</svg>
